<?xml version="1.0" encoding="UTF-8"?>
<svg id="Layer_1_copy" data-name="Layer 1 copy" xmlns="http://www.w3.org/2000/svg" xmlns:xlink="http://www.w3.org/1999/xlink" viewBox="0 0 749.27 859.21">
  <defs>
    <style>
      .cls-1 {
        fill: url(#linear-gradient-2);
      }

      .cls-2 {
        fill: url(#linear-gradient-4);
      }

      .cls-3 {
        fill: url(#linear-gradient-3);
      }

      .cls-4 {
        fill: url(#linear-gradient-5);
      }

      .cls-5 {
        fill: url(#linear-gradient-8);
      }

      .cls-6 {
        fill: url(#linear-gradient-7);
      }

      .cls-7 {
        fill: url(#linear-gradient-6);
      }

      .cls-8 {
        fill: url(#linear-gradient);
      }
    </style>
    <linearGradient id="linear-gradient" x1="8" y1="429.61" x2="741.27" y2="429.61" gradientUnits="userSpaceOnUse">
      <stop offset="0" stop-color="#00c0ff"/>
      <stop offset="1" stop-color="#0065f2"/>
    </linearGradient>
    <linearGradient id="linear-gradient-2" x1="4" y1="429.61" x2="745.27" y2="429.61" gradientUnits="userSpaceOnUse">
      <stop offset="0" stop-color="#041c6e"/>
      <stop offset="1" stop-color="#1539c4"/>
    </linearGradient>
    <linearGradient id="linear-gradient-3" x1="0" y1="429.61" x2="749.27" y2="429.61" xlink:href="#linear-gradient-2"/>
    <linearGradient id="linear-gradient-4" x1="19.07" y1="192.45" x2="693.77" y2="192.45" xlink:href="#linear-gradient-2"/>
    <linearGradient id="linear-gradient-5" x1="19.07" y1="369.92" x2="730.2" y2="369.92" xlink:href="#linear-gradient"/>
    <linearGradient id="linear-gradient-6" x1="28.45" y1="634.05" x2="677.91" y2="634.05" gradientUnits="userSpaceOnUse">
      <stop offset="0" stop-color="aqua"/>
      <stop offset="1" stop-color="#00bfff"/>
    </linearGradient>
    <linearGradient id="linear-gradient-7" x1="472.3" y1="768.6" x2="414.62" y2="233.58" xlink:href="#linear-gradient-6"/>
    <linearGradient id="linear-gradient-8" x1="-707.15" y1="-3776.36" x2="-935.66" y2="-3672.97" gradientTransform="translate(3984.7 -961.44) rotate(-96.15)" gradientUnits="userSpaceOnUse">
      <stop offset="0" stop-color="#fff"/>
      <stop offset="1" stop-color="#8fe3ff"/>
    </linearGradient>
  </defs>
  <path class="cls-8" d="M727.92,111.14l-119.79-35L374.88,8l-.72.21L8,115.07v212.46c0,2.3.01,4.6.05,6.9.09,7.67.35,15.32.75,22.93,1.34,25.31,4.37,50.25,9.01,74.69,2.23,11.7,4.82,23.29,7.76,34.76.38,1.46.76,2.92,1.15,4.38,0,.03.01.05.02.07.13.52.27,1.04.42,1.56.39,1.49.8,2.98,1.22,4.47.34,1.23.69,2.46,1.04,3.69.03.12.07.25.11.37.3,1.06.6,2.13.92,3.19.03.12.07.24.1.36.21.71.42,1.42.63,2.13.05.17.11.35.16.52.19.65.39,1.31.59,1.96.08.28.17.56.25.85.27.87.54,1.74.81,2.61.07.22.13.44.21.65.16.56.34,1.12.52,1.68.29.92.58,1.84.88,2.76.32,1.02.65,2.04.98,3.05.25.74.49,1.49.74,2.23.1.32.2.63.31.95h.01c.78,2.35,1.58,4.7,2.39,7.03.87,2.49,1.75,4.96,2.65,7.43,1.65,4.51,3.35,8.99,5.11,13.44.54,1.39,1.1,2.77,1.66,4.16,58.01,143.74,174.74,259.8,326.24,314.86,27.61-10.04,54.08-22.12,79.24-36.01,63.43-35.04,118.6-81.66,163.16-136.66.14-.17.28-.34.41-.51,19.75-24.42,37.41-50.47,52.77-77.9.03-.07.07-.15.12-.22,1.33-2.39,2.65-4.79,3.96-7.21.65-1.19,1.29-2.4,1.93-3.6.01-.01.01-.02.01-.03.65-1.21,1.28-2.42,1.91-3.63.64-1.22,1.27-2.44,1.89-3.66.63-1.22,1.25-2.44,1.86-3.67.62-1.23,1.23-2.45,1.84-3.69,1.22-2.46,2.41-4.93,3.59-7.41,12.33-25.9,22.68-52.83,30.92-80.59,15.01-50.62,22.97-103.98,22.97-158.77V115.04l-13.35-3.9ZM730.2,330.34c0,53.14-7.72,104.89-22.29,153.98-7.99,26.94-18.04,53.08-30,78.22-5.95,12.54-12.39,24.83-19.28,36.84-14.26,24.85-30.47,48.52-48.46,70.77-.13.16-.27.33-.41.49-43.21,53.34-96.71,98.55-158.23,132.53-24.41,13.48-50.07,25.19-76.84,34.93-145.64-52.94-258.15-163.99-314.91-301.7-3.78-9.16-7.3-18.44-10.58-27.82-4.95-14.19-9.32-28.63-13.09-43.28-2.93-11.36-5.48-22.85-7.66-34.46-4.43-23.46-7.33-47.4-8.62-71.68-.47-9.07-.73-18.19-.76-27.37V124.16L374.31,20.49l.52-.15,226.25,66.09,92.69,27.09,36.43,10.64v206.18Z"/>
  <path class="cls-1" d="M374.69,855.21c-.46,0-.92-.08-1.37-.24-75.25-27.35-142.41-69.43-199.6-125.07-56.23-54.7-99.63-119.32-128.98-192.06l-.19-.48c-.5-1.24-1-2.48-1.49-3.73-1.71-4.32-3.44-8.88-5.14-13.51-.91-2.49-1.79-4.98-2.67-7.48-.79-2.27-1.57-4.55-2.32-6.83-.03-.07-.06-.14-.08-.22-.12-.36-.24-.71-.35-1.06l-.71-2.14c-.35-1.06-.68-2.1-1.01-3.13-.29-.88-.58-1.79-.87-2.71-.18-.58-.36-1.13-.52-1.69-.06-.18-.12-.36-.17-.54,0,0-.88-2.85-.9-2.89l-.24-.82c-.18-.59-.39-1.27-.58-1.94l-.16-.52s-.72-2.46-.74-2.53c-.29-.95-.56-1.9-.82-2.85l-.07-.25c-.05-.16-.1-.33-.14-.49l-.07-.26c-.32-1.14-.65-2.28-.96-3.41-.42-1.48-.83-2.98-1.22-4.48-.15-.53-.29-1.05-.43-1.58,0-.03-.02-.08-.02-.08-.38-1.43-.76-2.87-1.13-4.3l-.03-.1c-2.96-11.54-5.59-23.32-7.82-35.02-4.69-24.68-7.74-49.99-9.07-75.23-.41-7.89-.67-15.66-.76-23.09-.04-2.3-.05-4.62-.05-6.95V115.07c0-1.78,1.17-3.34,2.88-3.84L373.76,4.16c.37-.11.74-.16,1.12-.16s.75.05,1.12.16l233.25,68.14,133.14,38.9c1.71.5,2.88,2.06,2.88,3.84v212.61c0,54.33-7.78,108.14-23.13,159.91-8.24,27.77-18.72,55.08-31.14,81.17-1.36,2.86-2.51,5.24-3.62,7.47-.61,1.24-1.23,2.47-1.85,3.71-.61,1.23-1.24,2.46-1.88,3.7-.62,1.21-1.25,2.45-1.9,3.68-.61,1.17-1.23,2.35-1.86,3.54l-.07.15-.43.8c-.5.95-1.01,1.9-1.52,2.84-1.31,2.42-2.64,4.83-3.97,7.24-.01.03-.1.18-.12.23-15.38,27.47-33.25,53.86-53.12,78.42-.14.18-.28.36-.43.53-45.61,56.3-100.9,102.61-164.35,137.66-25.52,14.09-52.37,26.29-79.81,36.27-.44.16-.9.24-1.37.24Z"/>
  <path class="cls-3" d="M374.88,8l233.25,68.14,119.79,35,13.35,3.9v212.61c0,54.79-7.96,108.15-22.97,158.77-8.24,27.76-18.59,54.69-30.92,80.59-1.18,2.48-2.37,4.95-3.59,7.41-.61,1.24-1.22,2.46-1.84,3.69-.61,1.23-1.23,2.45-1.86,3.67-.62,1.22-1.25,2.44-1.89,3.66-.63,1.21-1.26,2.42-1.91,3.63,0,.01,0,.02-.01.03-.64,1.2-1.28,2.41-1.93,3.6-1.31,2.42-2.63,4.82-3.96,7.21-.05.07-.09.15-.12.22-15.36,27.43-33.02,53.48-52.77,77.9-.13.17-.27.34-.41.51-44.56,55-99.73,101.62-163.16,136.66-25.16,13.89-51.63,25.97-79.24,36.01-151.5-55.06-268.23-171.12-326.24-314.86-.56-1.39-1.12-2.77-1.66-4.16-1.76-4.45-3.46-8.93-5.11-13.44-.9-2.47-1.78-4.94-2.65-7.43-.81-2.33-1.61-4.68-2.39-7.03h-.01c-.11-.32-.21-.63-.31-.95-.25-.74-.49-1.49-.74-2.23-.33-1.01-.66-2.03-.98-3.05-.3-.92-.59-1.84-.88-2.76-.18-.56-.36-1.12-.52-1.68-.08-.21-.14-.43-.21-.65-.27-.87-.54-1.74-.81-2.61-.08-.29-.17-.57-.25-.85-.2-.65-.4-1.31-.59-1.96-.05-.17-.11-.35-.16-.52-.21-.71-.42-1.42-.63-2.13-.03-.12-.07-.24-.1-.36-.32-1.06-.62-2.13-.92-3.19-.04-.12-.08-.25-.11-.37-.35-1.23-.7-2.46-1.04-3.69-.42-1.49-.83-2.98-1.22-4.47-.15-.52-.29-1.04-.42-1.56-.01-.02-.02-.04-.02-.07-.39-1.46-.77-2.92-1.15-4.38-2.94-11.47-5.53-23.06-7.76-34.76-4.64-24.44-7.67-49.38-9.01-74.69-.4-7.61-.66-15.26-.75-22.93-.04-2.3-.05-4.6-.05-6.9V115.07L374.16,8.21l.72-.21M374.88,0c-.75,0-1.51.11-2.24.32l-.72.21L5.76,107.39C2.35,108.39,0,111.51,0,115.07v212.46C0,330.36.02,332.53.05,334.57c.09,7.46.34,15.29.76,23.21,1.35,25.42,4.42,50.91,9.14,75.76,2.24,11.78,4.89,23.64,7.87,35.25l.03.11c.35,1.36.71,2.72,1.07,4.09.04.17.08.35.14.52.12.48.25.96.39,1.43.36,1.37.75,2.81,1.23,4.52.33,1.18.67,2.41,1.02,3.63.05.19.11.38.17.58l.07.23c.27.94.53,1.89.82,2.82.02.07.04.15.06.22.02.07.04.15.06.22l.63,2.13c.04.12.08.26.12.39l.04.12c.19.64.39,1.32.6,1.98.04.13.08.26.12.39.03.1.06.2.09.3.02.08.05.16.07.24l.63,2.05.17.56s.01.04.02.05l.03.1c.05.15.11.35.18.58.16.56.34,1.11.52,1.67.28.89.57,1.82.88,2.75.33,1.04.66,2.07.99,3.1,0,.03.02.05.03.08.12.35.23.7.35,1.05.12.36.24.73.36,1.09.11.36.23.71.35,1.08.03.1.07.2.11.3.73,2.2,1.5,4.47,2.3,6.76.92,2.63,1.8,5.09,2.69,7.54,1.71,4.68,3.46,9.27,5.19,13.64.46,1.18.95,2.4,1.44,3.62l.24.59c14.63,36.25,33.11,71.1,54.92,103.57,21.78,32.41,47,62.65,74.98,89.86,28.23,27.46,59.44,52.02,92.76,73,33.96,21.38,70.38,39.19,108.26,52.96.88.32,1.81.48,2.73.48s1.85-.16,2.73-.48c27.63-10.05,54.67-22.34,80.37-36.52,63.88-35.29,119.56-81.92,165.48-138.6.17-.2.34-.41.5-.62,19.99-24.73,37.98-51.29,53.47-78.95.03-.06.07-.12.1-.19,0-.02.02-.03.03-.05,1.42-2.55,2.73-4.93,4-7.29.52-.95,1.04-1.93,1.57-2.91l.39-.73h0c.04-.07.07-.13.1-.2.62-1.16,1.23-2.33,1.84-3.49.66-1.26,1.3-2.5,1.93-3.74.69-1.33,1.31-2.55,1.9-3.75.63-1.24,1.24-2.48,1.86-3.73,1.09-2.2,2.25-4.59,3.64-7.51,12.51-26.28,23.06-53.79,31.37-81.75,15.46-52.14,23.3-106.33,23.3-161.05V115.04c0-3.55-2.34-6.68-5.76-7.68l-13.35-3.9-119.79-35L377.12.32c-.73-.21-1.49-.32-2.24-.32h0Z"/>
  <g>
    <path class="cls-2" d="M693.77,113.52c-160.34,16.89-297.87,113.55-375.05,251.04-60.13-28.35-126.97-44.16-197.36-44.16-35.12,0-69.35,3.92-102.29,11.39V124.16L374.31,20.49l.52-.15,226.25,66.09,92.69,27.09Z"/>
    <path class="cls-4" d="M730.2,124.16v206.18c0,53.14-7.72,104.89-22.29,153.98-7.99,26.94-18.04,53.08-30,78.22-9.54-3.91-20.4-6.47-32.69-6.47-110.12,0-120.16,62.08-144.92,70.26-36.81-62.47-103.27-104.18-179.14-104.18-30.96,0-60.35,6.96-86.81,19.43-7.25-12.92-15.71-25.02-25.22-36.13-8.31-9.71-17.43-18.66-27.25-26.75-36.93-30.49-83.74-48.7-134.65-48.7-6.33,0-12.59.28-18.78.84-4.43-23.46-7.33-47.4-8.62-71.68-.47-9.07-.73-18.19-.76-27.37,32.94-7.47,67.17-11.39,102.29-11.39,70.39,0,137.23,15.81,197.36,44.16,77.18-137.49,214.71-234.15,375.05-251.04l36.43,10.64Z"/>
    <path class="cls-7" d="M677.91,562.54c-5.95,12.54-12.39,24.83-19.28,36.84-14.26,24.85-30.47,48.52-48.46,70.77-.13.16-.27.33-.41.49-43.21,53.34-96.71,98.55-158.23,132.53-24.41,13.48-50.07,25.19-76.84,34.93-145.64-52.94-258.15-163.99-314.91-301.7-3.78-9.16-7.3-18.44-10.58-27.82-4.95-14.19-9.32-28.63-13.09-43.28-2.93-11.36-5.48-22.85-7.66-34.46,6.19-.56,12.45-.84,18.78-.84,50.91,0,97.72,18.21,134.65,48.7,9.82,8.09,18.94,17.04,27.25,26.75,9.51,11.11,17.97,23.21,25.22,36.13,26.46-12.47,55.85-19.43,86.81-19.43,75.87,0,142.33,41.71,179.14,104.18,24.76-8.18,34.8-70.26,144.92-70.26,12.29,0,23.15,2.56,32.69,6.47Z"/>
  </g>
  <g>
    <path class="cls-6" d="M422.36,232.74c24.02,40.54,45.03,81.65,63.48,123.42,18.41,41.76,34.28,84.15,46.78,127.18,12.44,43.01,21.58,86.75,24.61,130.82,1.49,22.01,1.34,44.12-1.3,65.97-2.64,21.82-7.79,43.44-16.59,63.79,3.86-21.36,3.79-42.76,1.38-63.83-2.44-21.08-7.25-41.86-13.58-62.29-12.7-40.86-30.99-80.37-52.19-118.68-21.25-38.31-45.48-75.48-71.77-111.47-26.31-35.97-54.78-70.82-85.1-103.87l104.28-51.04Z"/>
    <path class="cls-5" d="M290.8,143.63l31.5,292.21c.49,4.57,5.56,7.09,9.5,4.71l71.07-128.8,146.48-2.39c3.94-2.37,4.08-8.03.27-10.6l-243.74-164.23c-6.85-4.62-15.97.88-15.08,9.1Z"/>
  </g>
</svg>